<svg width="436" height="925" viewBox="0 0 436 925" fill="none" xmlns="http://www.w3.org/2000/svg">
<path fill-rule="evenodd" clip-rule="evenodd" d="M145.787 231.653C145.787 231.653 161.079 254.584 177.788 273.46C193.024 290.674 208.824 303.345 219.505 293.543C232.918 281.235 210.515 258.22 200.05 245.679C192.52 236.652 175.157 219.379 165.434 211.091C149.924 197.872 133.835 218.477 145.787 231.653Z" fill="#FFC999"/>
<path fill-rule="evenodd" clip-rule="evenodd" d="M195.83 240.619C211.708 253.699 238.323 271.249 219.663 293.733C209.4 306.102 191.7 290.901 172.403 267.006L195.83 240.619Z" fill="#E4EBF7"/>
<path fill-rule="evenodd" clip-rule="evenodd" d="M360.731 231.653C360.731 231.653 345.439 254.584 328.73 273.46C313.494 290.674 297.694 303.345 287.013 293.543C273.6 281.235 296.003 258.22 306.468 245.679C313.997 236.652 331.361 219.379 341.084 211.091C356.594 197.872 372.683 218.477 360.731 231.653Z" fill="#FFC999"/>
<path fill-rule="evenodd" clip-rule="evenodd" d="M310.688 240.619C294.81 253.699 268.196 271.249 286.854 293.733C297.119 306.102 314.817 290.901 334.116 267.006L310.688 240.619Z" fill="#E4EBF7"/>
<path fill-rule="evenodd" clip-rule="evenodd" d="M237.756 219.256L237.711 203.61C237.711 203.61 226.384 195.952 224.935 203.893C223.458 211.988 228.45 218.802 233.429 219.73C236.699 220.34 237.756 219.256 237.756 219.256Z" fill="#FFC999"/>
<path fill-rule="evenodd" clip-rule="evenodd" d="M273.591 219.256L273.636 203.61C273.636 203.61 284.962 195.952 286.412 203.893C287.887 211.988 282.877 219.82 277.918 219.73C274.598 219.67 273.591 219.256 273.591 219.256Z" fill="#FFC999"/>
<path fill-rule="evenodd" clip-rule="evenodd" d="M233.006 208.164C234.914 225.322 239.839 238.05 256.023 238.05C272.926 238.05 276.884 221.135 278.681 206.766C282.043 179.898 267.098 173.447 254.585 173.447C242.071 173.447 230.488 185.528 233.006 208.164Z" fill="#FFC999"/>
<path fill-rule="evenodd" clip-rule="evenodd" d="M279.433 249.758C279.433 249.758 273.447 266.535 254.585 266.535C232.687 266.535 231.622 249.133 231.622 249.133L236.716 247.401C237.895 246.999 238.73 245.886 238.822 244.575C239.135 240.148 239.834 229.262 240.268 214.964C259.075 208.41 269.479 214.398 269.479 214.398C269.479 214.398 270.53 231.758 271.503 244.306C271.599 245.538 272.344 246.604 273.431 247.053C275.296 247.821 278.136 249.029 279.433 249.758Z" fill="#FFC999"/>
<path fill-rule="evenodd" clip-rule="evenodd" d="M237.032 195.957C241.574 192.671 242.715 186.799 242.715 186.799C242.349 186.979 254.229 193.335 260.339 194.811C265.551 196.07 268.95 194.57 262.856 187.563C269.585 191.543 273.821 194.631 276.01 196.349C277.166 197.255 277.856 198.673 277.88 200.198L278.082 211.851L282.397 200.915C282.397 200.915 285.514 202.187 286.952 198.881C288.774 194.694 283.717 186.227 283.717 186.227C283.717 186.227 288.051 187.578 287.432 182.603C286.813 177.628 274.964 171.157 274.964 171.157C274.964 171.157 278.573 170.954 277.211 167.107C275.851 163.262 261.538 164.29 261.538 164.29C261.538 164.29 263.936 160.221 258.773 159.821C252.933 159.369 243.075 167.343 243.075 167.343C243.075 167.343 235.883 160.221 234.485 171.99C227.252 173.192 224.374 180.059 229.649 182.094C224.374 186.926 223.955 190.106 229.23 190.615C226.352 194.685 225.453 200.343 230.847 202.441L233.724 212.106L234.257 201.2C234.359 199.089 235.386 197.148 237.032 195.957Z" fill="#253368"/>
<path d="M249.883 198.3C247.442 197.671 244.924 197.449 242.542 197.881C241.55 198.061 240.61 198.353 239.73 198.767C239.247 198.995 239.029 199.595 239.243 200.108C239.458 200.621 240.024 200.853 240.508 200.625C241.237 200.282 242.025 200.037 242.865 199.884C244.953 199.506 247.223 199.706 249.43 200.275C249.924 200.402 250.374 200.539 250.77 200.674L251.063 200.778C251.142 200.807 251.201 200.83 251.239 200.846C251.733 201.048 252.287 200.788 252.478 200.264C252.669 199.741 252.423 199.152 251.93 198.95L251.704 198.863C251.608 198.827 251.493 198.786 251.359 198.74C250.919 198.59 250.424 198.44 249.883 198.3Z" fill="#253368"/>
<path d="M261.646 199.33C261.442 199.211 261.192 199.268 261.05 199.453L261.003 199.529L259.024 203.343C258.997 203.394 258.98 203.449 258.971 203.506L258.965 203.593L259.14 215.25L255.696 215.936C255.464 215.982 255.304 216.2 255.31 216.442L255.318 216.523C255.361 216.769 255.566 216.939 255.794 216.933L255.871 216.924L259.707 216.16C259.908 216.12 260.06 215.948 260.088 215.738L260.093 215.658L259.915 203.711L261.833 200.013C261.945 199.797 261.891 199.531 261.717 199.381L261.646 199.33Z" fill="#DD936F"/>
<path fill-rule="evenodd" clip-rule="evenodd" d="M264.175 207.147C264.175 209.254 265.303 210.962 266.694 210.962C268.083 210.962 269.21 209.254 269.21 207.147C269.21 205.04 268.083 203.332 266.694 203.332C265.303 203.332 264.175 205.04 264.175 207.147Z" fill="#253368"/>
<path fill-rule="evenodd" clip-rule="evenodd" d="M243.435 207.147C243.435 209.254 244.563 210.962 245.953 210.962C247.344 210.962 248.469 209.254 248.469 207.147C248.469 205.04 247.344 203.332 245.953 203.332C244.563 203.332 243.435 205.04 243.435 207.147Z" fill="#253368"/>
<path d="M253.487 227.114C253.226 227.114 253.013 227.339 253.013 227.617C253.013 227.867 253.185 228.074 253.41 228.113L253.487 228.119H257.563C257.825 228.119 258.037 227.894 258.037 227.617C258.037 227.367 257.865 227.16 257.64 227.121L257.563 227.114H253.487Z" fill="#DD936F"/>
<path d="M271.608 198.625C268.867 197.75 265.976 197.79 263.249 198.377L262.831 198.472C262.305 198.597 261.904 198.718 261.652 198.808C261.15 198.986 260.88 199.562 261.048 200.095C261.217 200.627 261.76 200.913 262.262 200.734L262.425 200.681C262.476 200.665 262.537 200.647 262.606 200.626C262.905 200.539 263.248 200.451 263.631 200.369C266.074 199.843 268.662 199.807 271.055 200.571C271.503 200.714 271.937 200.884 272.358 201.082C272.841 201.31 273.407 201.078 273.622 200.566C273.837 200.053 273.619 199.452 273.135 199.224C272.64 198.991 272.131 198.792 271.608 198.625Z" fill="#253368"/>
<path d="M265.908 235.494C265.771 235.258 265.479 235.184 265.256 235.33C262.243 237.296 259.015 238.397 255.705 238.397C252.393 238.397 249.077 237.344 245.926 235.471C245.698 235.335 245.409 235.421 245.281 235.664C245.153 235.906 245.234 236.212 245.463 236.348C248.747 238.3 252.218 239.403 255.705 239.403C259.204 239.403 262.599 238.245 265.753 236.186C265.976 236.04 266.045 235.731 265.908 235.494Z" fill="#DD936F"/>
<path fill-rule="evenodd" clip-rule="evenodd" d="M262.76 220.051C262.76 220.051 255.873 221.116 249.499 219.547C249.499 219.547 250.924 223.838 255.474 224.187C261.218 224.627 262.76 220.051 262.76 220.051Z" fill="white"/>
<path d="M249.621 218.989C250.046 219.094 250.482 219.188 250.926 219.273C254.07 219.872 257.417 219.951 260.553 219.709L261.177 219.657C261.427 219.634 261.661 219.61 261.879 219.586L262.682 219.484C263.085 219.422 263.406 219.837 263.269 220.244C263.068 220.839 262.606 221.692 261.799 222.541C260.306 224.11 258.205 224.971 255.435 224.758C253.373 224.6 251.739 223.686 250.504 222.267C250.027 221.72 249.644 221.135 249.344 220.549C249.162 220.193 249.046 219.91 248.989 219.738C248.847 219.311 249.205 218.887 249.621 218.989ZM250.486 220.351L250.578 220.508C250.784 220.843 251.023 221.174 251.297 221.489C252.355 222.704 253.74 223.479 255.513 223.615C257.966 223.803 259.764 223.067 261.038 221.727L261.23 221.516C261.415 221.302 261.58 221.083 261.726 220.861L261.798 220.746L261.27 220.799C257.87 221.11 254.197 221.061 250.735 220.401L250.486 220.351Z" fill="#FF7A46"/>
<path fill-rule="evenodd" clip-rule="evenodd" d="M185.009 553.128C190.324 496.579 206.037 451.873 206.037 451.873C206.037 451.873 231.156 412.001 246.522 446.007C253.965 462.477 244.731 499.067 224.961 558.901C224.961 558.901 218.221 587.528 197.947 582.123C180.977 577.599 185.009 553.128 185.009 553.128Z" fill="#FFC999"/>
<path fill-rule="evenodd" clip-rule="evenodd" d="M189.114 516.744C209.52 529.884 236.103 527.211 236.103 527.211C240.651 510.286 247.078 489.809 257.479 428.998C233.641 402.016 203.155 438.68 203.155 438.68L189.114 516.744Z" fill="#597EF7"/>
<path d="M192.27 506.047C192.029 505.93 191.745 506.041 191.634 506.296C191.523 506.551 191.629 506.853 191.869 506.97C200.92 511.392 210.397 514.169 219.842 515.617C226.066 516.572 231.341 516.828 235.209 516.701L235.808 516.675C236.072 516.659 236.274 516.418 236.258 516.138C236.242 515.858 236.016 515.644 235.752 515.661L235.18 515.686C231.365 515.811 226.145 515.557 219.979 514.611C210.62 513.176 201.231 510.425 192.27 506.047Z" fill="#253368"/>
<path d="M202.328 443.495C202.095 443.447 201.868 443.589 201.789 443.818L201.768 443.898L188.644 516.648C188.608 516.853 188.692 517.061 188.858 517.173L189.055 517.302L189.463 517.559L189.621 517.657C190.24 518.037 190.967 518.46 191.796 518.915C194.162 520.214 196.875 521.512 199.895 522.724C211.179 527.249 223.479 529.361 236.161 527.715C236.424 527.681 236.611 527.428 236.579 527.149C236.547 526.871 236.308 526.673 236.045 526.707C223.532 528.33 211.382 526.245 200.234 521.773C197.25 520.576 194.57 519.294 192.237 518.013L191.563 517.637C191.022 517.331 190.534 517.043 190.101 516.777L189.648 516.494L202.709 444.089C202.754 443.841 202.62 443.601 202.404 443.516L202.328 443.495Z" fill="#253368"/>
<path fill-rule="evenodd" clip-rule="evenodd" d="M270.091 574.417C256.694 518.01 256.916 469.212 256.916 469.212C256.916 469.212 267.549 421.639 293.046 448.782C305.396 461.926 308.618 500.541 309.502 565.39C309.502 565.39 312.482 595.424 291.674 597.621C274.26 599.458 270.091 574.417 270.091 574.417Z" fill="#FFC999"/>
<path fill-rule="evenodd" clip-rule="evenodd" d="M261.732 535.77C285.136 540.753 309.272 528.636 309.272 528.636C308.115 511.079 307.202 488.359 298.255 425.312C267.179 408.553 249.872 457.3 249.872 457.3L261.732 535.77Z" fill="#597EF7"/>
<path d="M305.862 518.169C305.758 517.911 305.476 517.792 305.233 517.903L304.922 518.04L304.543 518.2C303.969 518.44 303.294 518.706 302.523 518.994C300.318 519.816 297.789 520.64 294.975 521.408C284.445 524.283 273.003 525.622 261.264 524.572C261 524.549 260.769 524.756 260.747 525.036C260.724 525.316 260.92 525.561 261.184 525.585C273.039 526.645 284.586 525.294 295.214 522.392C298.055 521.616 300.611 520.785 302.841 519.953L303.488 519.708C303.799 519.588 304.092 519.473 304.367 519.362L304.893 519.146C305.245 519 305.486 518.894 305.612 518.837C305.855 518.726 305.967 518.427 305.862 518.169Z" fill="#253368"/>
<path d="M250.717 462.119L250.639 462.125C250.404 462.165 250.237 462.38 250.236 462.625L250.242 462.707L261.259 535.849C261.29 536.055 261.437 536.22 261.628 536.265L262.036 536.353L262.591 536.461C263.367 536.607 264.269 536.752 265.286 536.888C278.911 538.704 294.358 537.071 309.002 529.349L309.489 529.089C309.725 528.963 309.819 528.657 309.699 528.407C309.58 528.156 309.292 528.056 309.056 528.183L308.575 528.439C294.125 536.059 278.86 537.673 265.405 535.879C264.547 535.765 263.774 535.644 263.091 535.522L262.594 535.43L262.154 535.342L251.188 462.547C251.155 462.325 250.991 462.16 250.793 462.126L250.717 462.119Z" fill="#253368"/>
<path fill-rule="evenodd" clip-rule="evenodd" d="M262.407 615.171C260.078 659.869 262.522 690.906 254.496 734.721C253.522 740.036 260.656 741.998 267.525 742.985C280.197 759.411 307.787 769.561 312.77 764.52C315.762 761.491 308.186 746.07 299.147 741.511C278.944 731.321 284.422 705.335 284.422 705.335C284.422 705.335 297.926 639.012 307.424 587.987C307.424 587.987 312.621 550.266 294.07 547.746C261.955 543.383 263.202 599.915 262.407 615.171Z" fill="#FFC999"/>
<path fill-rule="evenodd" clip-rule="evenodd" d="M324.862 766.602C324.862 766.602 320.75 772.996 304.44 769.661C288.127 766.327 281.512 757.557 273.075 754.93C257.307 750.021 250.955 744.661 250.955 744.661C250.955 744.661 249.788 747.123 250.697 750.815C252.103 756.511 267.438 756.956 275.785 762.674C281.825 766.809 286.631 769.356 297.051 773.598C307.469 777.84 321.475 776.518 323.549 772.9C325.623 769.282 324.862 766.602 324.862 766.602Z" fill="#A3B5D6"/>
<path fill-rule="evenodd" clip-rule="evenodd" d="M251.365 745.357C251.365 745.357 254.686 748.105 266.417 752.958C269.223 754.119 271.965 755.37 276.77 757.954C284.156 761.925 307.079 777.208 322.992 768.759C325.548 766.463 325.328 763.317 324.507 760.793C323.723 758.389 322.066 756.424 319.925 755.281C313.44 751.819 297.933 743.582 291.272 729.199C290.492 727.514 288.831 726.52 287.069 726.696C284.939 726.909 282.123 727.596 279.919 729.575C278.086 731.223 281.647 738.992 279.85 739.071C274.908 739.29 266.978 736.685 262.239 732.297C258.27 728.621 255.908 725.312 255.908 725.312C255.908 725.312 250.174 737.651 251.365 745.357Z" fill="#4E5C93"/>
<path d="M300.596 757.341C300.321 757.219 300.004 757.357 299.889 757.649C299.775 757.941 299.905 758.277 300.18 758.399C307.615 761.685 313.712 762.199 318.294 761.096C319.082 760.906 319.626 760.713 319.916 760.577C320.19 760.45 320.314 760.112 320.194 759.822C320.074 759.532 319.755 759.401 319.482 759.528L319.323 759.593C319.273 759.613 319.212 759.635 319.142 759.66C318.84 759.768 318.477 759.876 318.055 759.978C313.689 761.029 307.821 760.534 300.596 757.341Z" fill="#A3B5D6"/>
<path d="M294.503 735.58L294.423 735.584L294.203 735.619C294.14 735.631 294.067 735.644 293.985 735.661C293.648 735.727 293.274 735.817 292.872 735.932C291.724 736.26 290.575 736.73 289.499 737.369C288.493 737.966 287.601 738.683 286.855 739.532C286.652 739.763 286.664 740.126 286.882 740.342C287.1 740.558 287.442 740.545 287.646 740.313C288.311 739.556 289.114 738.911 290.026 738.369C291.018 737.78 292.086 737.344 293.154 737.038C293.527 736.931 293.874 736.849 294.183 736.787L294.512 736.728C294.529 736.726 294.545 736.724 294.557 736.722C294.853 736.683 295.063 736.396 295.026 736.082C294.993 735.797 294.767 735.586 294.503 735.58Z" fill="#A3B5D6"/>
<path fill-rule="evenodd" clip-rule="evenodd" d="M288.672 361.285C297.305 375.019 289.752 380.741 289.752 380.741C268.679 382.261 215.064 380.615 215.064 380.615C207.248 366.959 215.304 361.285 215.304 361.285C215.304 361.285 196.962 276.59 201.278 259.421C203.916 248.931 218.181 250.648 235.207 246.717C235.645 247.756 240.061 255.873 254.806 256.064C270.947 256.272 274.417 248.59 275.002 247.243C290.83 249.121 297.784 249.884 305.936 255.989C308.354 257.799 305.936 303.804 288.672 361.285Z" fill="#E4EBF7"/>
<path d="M232.378 253.964C232.16 253.806 231.862 253.866 231.713 254.098C231.563 254.329 231.62 254.646 231.838 254.804C243.75 263.429 256.376 264.109 268.006 260.095C269.455 259.595 270.753 259.058 271.883 258.522L272.336 258.302C272.479 258.231 272.613 258.163 272.74 258.097L273.113 257.898C273.194 257.854 273.254 257.82 273.294 257.796C273.525 257.661 273.61 257.352 273.482 257.106C273.354 256.86 273.063 256.771 272.831 256.907L272.589 257.041L272.495 257.092C272.211 257.243 271.875 257.412 271.492 257.594C270.392 258.117 269.125 258.64 267.709 259.128C256.338 263.053 244.014 262.39 232.378 253.964Z" fill="#A3B5D6"/>
<path d="M305.296 279.904C305.035 279.857 304.788 280.044 304.744 280.321L303.949 285.267C303.556 287.688 303.125 290.322 302.66 293.123L301.974 297.237C300.711 304.771 299.42 312.249 298.143 319.359L297.363 323.659C297.006 325.613 296.654 327.512 296.308 329.354L295.459 333.816C292.647 348.393 290.403 358.003 288.963 361.058C288.894 361.203 288.896 361.376 288.967 361.52C291.992 367.658 292.071 373.316 290.397 378.118C290.165 378.784 289.917 379.37 289.669 379.87L289.553 380.1C289.464 380.271 289.395 380.392 289.352 380.461C289.206 380.695 289.267 381.01 289.488 381.165C289.708 381.32 290.005 381.255 290.151 381.021L290.23 380.89C290.289 380.785 290.364 380.647 290.451 380.476L290.518 380.342C290.784 379.804 291.049 379.178 291.295 378.471C293.021 373.519 292.978 367.707 290.01 361.449L289.926 361.277L289.937 361.256C291.489 357.712 293.809 347.587 296.724 332.318L297.248 329.552C297.663 327.341 298.087 325.045 298.519 322.673L298.735 321.481C300.243 313.154 301.775 304.276 303.261 295.358L303.878 291.638C304.149 289.998 304.408 288.421 304.653 286.918L305.689 280.489C305.733 280.212 305.557 279.95 305.296 279.904Z" fill="#A3B5D6"/>
<path d="M202.523 282.446C202.262 282.489 202.083 282.748 202.123 283.025L203.8 294.446L204.811 301.242C205.792 307.808 206.776 314.308 207.732 320.516L208.669 326.555C211.618 345.447 213.724 357.686 214.69 360.962L214.761 361.191L214.711 361.257C210.725 366.639 210.643 372.373 212.94 377.735L213.068 378.027C213.419 378.816 213.796 379.526 214.173 380.146L214.365 380.454L214.541 380.721C214.61 380.821 214.66 380.891 214.688 380.93C214.852 381.15 215.154 381.188 215.361 381.014C215.569 380.84 215.604 380.521 215.44 380.3L215.347 380.169C215.255 380.036 215.129 379.843 214.978 379.595C214.623 379.011 214.267 378.339 213.934 377.593C211.651 372.468 211.659 367.029 215.429 361.927L215.642 361.644L215.675 361.606C215.785 361.462 215.813 361.265 215.747 361.093L215.695 360.951C214.83 358.435 212.656 345.878 209.614 326.389L208.963 322.204C207.728 314.215 206.441 305.695 205.169 297.138L203.07 282.871C203.034 282.621 202.832 282.442 202.601 282.44L202.523 282.446Z" fill="#A3B5D6"/>
<path fill-rule="evenodd" clip-rule="evenodd" d="M240.103 464.973C240.103 464.973 253.05 466.498 262.162 464.02C275.1 460.5 290.454 448.186 300.045 438.522C298.023 407.447 291.55 391.424 291.55 391.424L212.481 390.979C212.481 390.979 204.617 406.475 203.179 439.03C203.179 439.03 231.949 463.745 240.103 464.973Z" fill="#597EF7"/>
<path fill-rule="evenodd" clip-rule="evenodd" d="M291.506 391.131L290.578 381.231L213.001 381.554L212.002 390.99C212.002 390.99 283.597 391.319 291.506 391.131Z" fill="#597EF7"/>
<path d="M242.664 391.679C242.4 391.663 242.173 391.878 242.159 392.158L241.894 397.331L241.723 400.784C241.639 402.53 241.555 404.301 241.472 406.082L241.31 409.653C241.218 411.723 241.132 413.742 241.052 415.697L240.851 420.833C240.547 429.031 240.408 435.185 240.481 438.614C240.555 442.153 242.643 444.723 246.023 446.467C247.209 447.079 248.476 447.546 249.741 447.888C250.184 448.008 250.596 448.103 250.966 448.177L251.205 448.223C251.308 448.242 251.388 448.255 251.442 448.263C251.704 448.302 251.946 448.108 251.982 447.83C252.019 447.552 251.836 447.295 251.574 447.256L251.261 447.202L251.143 447.179C250.792 447.108 250.4 447.017 249.978 446.903C248.771 446.577 247.564 446.133 246.442 445.554C243.352 443.959 241.504 441.683 241.439 438.591L241.427 437.874C241.384 434.193 241.539 427.939 241.85 419.765L241.962 416.905C242.024 415.363 242.09 413.779 242.16 412.158L242.267 409.701C242.426 406.128 242.595 402.553 242.765 399.1L243.115 392.215C243.13 391.935 242.928 391.695 242.664 391.679Z" fill="#253368"/>
<path d="M291.505 390.623L265.682 390.699L218.039 390.775C216.055 390.774 214.217 390.773 212.531 390.77C212.267 390.77 212.052 390.997 212.052 391.278C212.052 391.558 212.266 391.786 212.53 391.786L237.332 391.775L265.684 391.715L291.508 391.639C291.773 391.638 291.986 391.41 291.985 391.129C291.985 390.848 291.769 390.622 291.505 390.623Z" fill="#253368"/>
<path d="M282.11 391.687C281.85 391.739 281.679 392.004 281.727 392.28L281.859 392.98L281.948 393.432C282.129 394.345 282.346 395.361 282.598 396.455C283.317 399.581 284.17 402.708 285.154 405.63L285.438 406.456C287.865 413.388 290.661 417.914 293.925 418.996C294.177 419.08 294.446 418.931 294.525 418.663C294.604 418.395 294.463 418.11 294.21 418.026C291.216 417.034 288.448 412.389 286.056 405.288C285.084 402.403 284.24 399.309 283.529 396.214L283.291 395.157C283.216 394.814 283.144 394.481 283.076 394.158L282.839 392.992L282.669 392.093C282.625 391.845 282.418 391.673 282.188 391.678L282.11 391.687Z" fill="#253368"/>
<path fill-rule="evenodd" clip-rule="evenodd" d="M258.103 385.371C258.124 386.354 259.106 387.128 260.298 387.1C261.488 387.071 262.439 386.252 262.417 385.268C262.397 384.285 261.414 383.51 260.223 383.539C259.032 383.567 258.082 384.388 258.103 385.371Z" fill="#253368"/>
<path d="M254.338 381.55C254.1 381.543 253.897 381.721 253.854 381.961L253.845 382.043L251.51 465.04C251.502 465.32 251.71 465.554 251.974 465.563C252.212 465.57 252.415 465.392 252.459 465.152L252.468 465.07L254.803 382.073C254.81 381.793 254.602 381.559 254.338 381.55Z" fill="#253368"/>
<path d="M213.73 380.723C213.465 380.723 213.251 380.95 213.251 381.231C213.251 381.484 213.424 381.693 213.652 381.732L213.73 381.739H290.578C290.843 381.739 291.057 381.512 291.057 381.231C291.057 380.978 290.884 380.769 290.656 380.73L290.578 380.723H213.73Z" fill="#253368"/>
<path fill-rule="evenodd" clip-rule="evenodd" d="M171.956 525C135.377 512.105 125.143 509.623 90.6622 491.611C86.4802 489.427 83.14 495.626 80.6722 501.811C63.9862 509.719 48.9353 533.08 51.9306 538.947C53.7278 542.47 68.3586 539.086 74.3148 531.728C87.6247 515.284 107.901 526.637 107.901 526.637C107.901 526.637 151.647 556.998 188.331 578.744C188.331 578.744 212.066 590.189 220.384 570.77C232.617 542.211 184.441 529.401 171.956 525Z" fill="#FFC999"/>
<path fill-rule="evenodd" clip-rule="evenodd" d="M47.3005 549.754C47.3005 549.754 42.9729 544.376 49.656 529.927C56.3378 515.476 65.2102 511.393 69.4165 504.136C77.2773 490.571 83.2527 485.918 83.2527 485.918C83.2527 485.918 81.4886 484.235 78.2008 484.201C73.1323 484.15 69.0869 498.379 62.3336 504.813C57.4478 509.466 54.1803 513.351 48.1576 522.073C42.135 530.797 39.8753 544.208 42.3828 547.016C44.8915 549.822 47.3005 549.754 47.3005 549.754Z" fill="#A3B5D6"/>
<path fill-rule="evenodd" clip-rule="evenodd" d="M82.5772 486.134C82.5772 486.134 79.4975 488.579 72.651 498.385C71.0134 500.729 69.3171 502.991 66.0177 506.865C60.9467 512.818 42.7522 530.585 45.9571 547.488C47.2523 550.429 49.9194 550.977 52.2135 550.814C54.3965 550.659 56.4274 549.58 57.8913 547.853C62.3237 542.62 72.8847 530.097 86.4335 527.32C88.02 526.994 89.2437 525.679 89.5196 523.99C89.853 521.947 89.9577 519.15 88.8413 516.615C87.9127 514.504 80.6037 515.972 80.9678 514.272C81.9717 509.599 86.0388 502.809 90.8199 499.431C94.8257 496.603 98.1429 495.189 98.1429 495.189C98.1429 495.189 89.2641 486.869 82.5772 486.134Z" fill="#4E5C93"/>
<path d="M60.7275 528.554C60.5122 528.376 60.202 528.417 60.0347 528.646C57.0336 532.744 55.151 536.684 54.1774 540.367C53.5254 542.833 53.3586 544.84 53.464 546.287L53.4789 546.462C53.4837 546.51 53.4883 546.548 53.4921 546.575C53.5324 546.861 53.7838 547.059 54.0534 547.016C54.3231 546.973 54.509 546.706 54.4687 546.42L54.4545 546.282L54.4485 546.206C54.3517 544.878 54.5083 542.994 55.1281 540.65C56.0671 537.099 57.8913 533.28 60.8145 529.288C60.9818 529.06 60.9428 528.731 60.7275 528.554Z" fill="#A3B5D6"/>
<path d="M78.9049 520.711C78.7611 520.465 78.4568 520.389 78.2251 520.542C77.9934 520.694 77.9221 521.017 78.0658 521.263C78.3792 521.799 78.6372 522.381 78.8434 523.004C79.4207 524.747 79.552 526.6 79.43 528.212L79.394 528.586C79.3555 528.872 79.5432 529.138 79.8131 529.178C80.083 529.219 80.3331 529.02 80.3715 528.734L80.3957 528.515C80.4017 528.451 80.408 528.378 80.4142 528.296C80.5463 526.55 80.4052 524.56 79.775 522.657C79.5458 521.965 79.2574 521.313 78.9049 520.711Z" fill="#A3B5D6"/>
<path fill-rule="evenodd" clip-rule="evenodd" d="M118.983 137.889C118.983 137.889 128.27 207.918 145.737 231.41C154.386 243.041 171.828 241.638 172.192 224.102C172.491 209.71 135.931 131.508 135.931 131.508C135.931 131.508 133.621 123.471 124.69 126.428C115.42 129.499 118.983 137.889 118.983 137.889Z" fill="#FFC999"/>
<path fill-rule="evenodd" clip-rule="evenodd" d="M111.636 118.279C111.636 118.279 115.015 137.293 123.303 139.613C130.808 141.713 134.632 131.915 134.632 131.915C134.632 131.915 136.798 123.897 136.918 114.591C136.996 108.492 138.774 96.9217 135.842 96.0409C132.019 94.8919 132.022 107.037 129.347 108.202C123.929 110.562 122.031 91.4571 120.154 88.5344C116.489 82.8218 107.419 95.503 111.636 118.279Z" fill="#FFC999"/>
<path d="M117.211 88.9328C116.949 88.9164 116.725 89.1277 116.71 89.4049C116.472 93.6644 117.145 98.1524 118.412 102.558C118.794 103.887 119.203 105.109 119.613 106.199L119.821 106.739C119.854 106.823 119.886 106.905 119.918 106.983L120.165 107.574C120.276 107.825 120.559 107.933 120.795 107.814C121.032 107.696 121.133 107.396 121.022 107.145L120.879 106.808L120.695 106.351C120.631 106.187 120.563 106.012 120.493 105.826C120.093 104.762 119.692 103.566 119.318 102.265C118.082 97.964 117.426 93.5889 117.656 89.4643C117.671 89.1872 117.472 88.9492 117.211 88.9328Z" fill="#DD936F"/>
<path d="M113.72 91.972C113.46 91.9433 113.227 92.144 113.2 92.4202L113.182 92.658C113.177 92.7287 113.172 92.8112 113.167 92.9053C112.94 97.3661 113.642 103.549 116.062 110.781C116.149 111.042 116.42 111.179 116.667 111.086C116.913 110.993 117.042 110.706 116.955 110.444C115.605 106.411 114.775 102.556 114.367 98.9629C114.106 96.6586 114.044 94.7312 114.101 93.2499L114.114 92.9596C114.125 92.741 114.136 92.5946 114.143 92.5238C114.17 92.2476 113.981 92.0006 113.72 91.972Z" fill="#DD936F"/>
<path d="M111.093 100.815C110.832 100.84 110.639 101.084 110.662 101.36C110.914 104.409 111.304 107.144 111.795 109.566C112.112 111.131 112.452 112.472 112.793 113.592L112.933 114.038C112.978 114.178 113.022 114.309 113.064 114.431L113.218 114.859C113.234 114.901 113.247 114.935 113.257 114.96C113.288 115.035 113.336 115.102 113.397 115.153L113.649 115.371L113.841 115.54C114.197 115.855 114.594 116.217 115.022 116.618C116.244 117.764 117.467 119 118.606 120.276C119.997 121.835 121.166 123.346 122.041 124.765C123.54 127.199 124.08 129.215 123.516 130.661C123.415 130.918 123.53 131.212 123.772 131.318C124.014 131.424 124.291 131.302 124.391 131.046C125.107 129.212 124.488 126.901 122.834 124.215C121.925 122.739 120.722 121.184 119.295 119.585C118.134 118.285 116.892 117.029 115.649 115.864L115.143 115.395C114.98 115.245 114.822 115.102 114.671 114.966L114.085 114.45L114.013 114.252C113.917 113.984 113.811 113.661 113.695 113.283C113.364 112.195 113.032 110.886 112.721 109.355C112.239 106.973 111.855 104.279 111.606 101.272C111.586 101.023 111.397 100.833 111.17 100.815L111.093 100.815Z" fill="#DD936F"/>
<path fill-rule="evenodd" clip-rule="evenodd" d="M387.535 137.889C387.535 137.889 378.248 207.918 360.782 231.41C352.131 243.041 334.689 241.638 334.326 224.102C334.026 209.71 370.588 131.508 370.588 131.508C370.588 131.508 372.896 123.471 381.828 126.428C391.098 129.499 387.535 137.889 387.535 137.889Z" fill="#FFC999"/>
<path fill-rule="evenodd" clip-rule="evenodd" d="M394.881 118.279C394.881 118.279 391.503 137.293 383.216 139.613C375.71 141.713 371.887 131.915 371.887 131.915C371.887 131.915 369.72 123.897 369.6 114.591C369.521 108.492 367.743 96.9217 370.676 96.0409C374.498 94.8919 374.496 107.037 377.171 108.202C382.59 110.562 384.488 91.4571 386.363 88.5344C390.029 82.8218 399.099 95.503 394.881 118.279Z" fill="#FFC999"/>
<path d="M389.308 88.9328C389.046 88.9492 388.847 89.1872 388.863 89.4643C389.093 93.5889 388.437 97.964 387.2 102.265C386.826 103.566 386.425 104.762 386.025 105.826L385.823 106.351C385.791 106.433 385.76 106.512 385.729 106.588L385.497 107.145C385.385 107.396 385.486 107.696 385.723 107.814C385.96 107.933 386.242 107.825 386.354 107.574L386.508 107.211C386.628 106.919 386.762 106.581 386.905 106.199C387.315 105.109 387.724 103.887 388.106 102.558C389.373 98.1524 390.046 93.6644 389.809 89.4049C389.793 89.1277 389.569 88.9164 389.308 88.9328Z" fill="#DD936F"/>
<path d="M392.798 91.9721C392.538 92.0007 392.349 92.2478 392.376 92.5239L392.392 92.7322C392.396 92.7962 392.4 92.8721 392.405 92.9595C392.482 94.4757 392.43 96.5047 392.151 98.9626C391.743 102.556 390.912 106.411 389.562 110.444C389.475 110.706 389.603 110.993 389.85 111.086C390.097 111.179 390.368 111.042 390.455 110.781C392.813 103.739 393.54 97.6921 393.367 93.2609L393.337 92.658C393.33 92.552 393.323 92.4725 393.318 92.4203C393.294 92.1717 393.103 91.9843 392.875 91.9702L392.798 91.9721Z" fill="#DD936F"/>
<path d="M395.426 100.816C395.165 100.791 394.935 100.996 394.912 101.273C394.664 104.28 394.28 106.974 393.797 109.355C393.486 110.886 393.154 112.195 392.823 113.283L392.689 113.71C392.646 113.844 392.604 113.969 392.564 114.085L392.434 114.45L392.07 114.768L391.616 115.176C391.379 115.39 391.13 115.62 390.869 115.865C389.627 117.029 388.384 118.285 387.224 119.585C385.797 121.184 384.593 122.739 383.684 124.215C382.03 126.901 381.411 129.212 382.127 131.046C382.227 131.303 382.504 131.424 382.746 131.318C382.988 131.212 383.103 130.918 383.003 130.661C382.438 129.215 382.978 127.199 384.478 124.765C385.352 123.346 386.521 121.835 387.912 120.276C389.052 119 390.274 117.764 391.496 116.618L391.994 116.156C392.155 116.009 392.31 115.868 392.459 115.735L393.018 115.242C393.06 115.205 393.095 115.176 393.121 115.154C393.182 115.102 393.23 115.036 393.261 114.96L393.358 114.705L393.392 114.608C393.473 114.381 393.561 114.119 393.654 113.822L393.725 113.592C394.066 112.473 394.406 111.131 394.723 109.566C395.214 107.144 395.604 104.409 395.856 101.36C395.879 101.084 395.686 100.84 395.426 100.816Z" fill="#DD936F"/>
</svg>
